<svg xmlns="http://www.w3.org/2000/svg" width="328" height="172" fill="none" viewBox="0 0 328 172">
  <g filter="url(#a)">
    <g clip-path="url(#b)">
      <path fill="#fff" d="M4 6a4 4 0 0 1 4-4h312a4 4 0 0 1 4 4v156a4 4 0 0 1-4 4H8a4 4 0 0 1-4-4z"/>
      <path fill="#242424" d="M32 20c-6.627 0-12 5.373-12 12 0 2.924 1.046 5.604 2.784 7.686l7.446-7.453a2.5 2.5 0 0 1 3.537 0l7.448 7.454A11.95 11.95 0 0 0 44 32c0-6.627-5.373-12-12-12m7.81 21.11-7.457-7.463a.5.5 0 0 0-.708 0L24.19 41.11A11.95 11.95 0 0 0 32 44c2.983 0 5.711-1.088 7.81-2.89M18 32c0-7.732 6.268-14 14-14s14 6.268 14 14-6.268 14-14 14-14-6.268-14-14m18.5-3a1.5 1.5 0 1 1 0-3 1.5 1.5 0 0 1 0 3m0 2a3.5 3.5 0 1 0 0-7 3.5 3.5 0 0 0 0 7m31.546-1.41q-1.108.574-2.755.574-2.133 0-3.418-1.347t-1.285-3.534q0-2.352 1.442-3.8 1.45-1.45 3.657-1.45 1.422 0 2.359.403v1.614a4.2 4.2 0 0 0-2.188-.588q-1.593 0-2.584 1.018-.984 1.02-.984 2.721 0 1.62.923 2.584.923.957 2.427.957 1.388 0 2.406-.656zM75.1 30h-1.538v-1.094h-.028q-.725 1.258-2.126 1.258-1.032 0-1.62-.56-.58-.561-.581-1.484 0-1.983 2.283-2.31l2.078-.294q0-1.497-1.422-1.497-1.251 0-2.255.86v-1.387q1.107-.656 2.556-.656 2.653 0 2.653 2.611zm-1.532-3.439-1.47.206q-.683.088-1.032.335-.34.24-.341.847 0 .444.314.732.322.28.854.28.725 0 1.197-.506.478-.513.478-1.285zm7.534-2.05q-.288-.226-.828-.226-.703 0-1.175.636-.472.635-.472 1.73V30h-1.586v-7h1.586v1.442h.027q.233-.738.711-1.148a1.62 1.62 0 0 1 1.08-.417q.43 0 .657.13zM88.465 30h-1.586v-1.19h-.027q-.765 1.354-2.359 1.354-1.292 0-2.071-.937-.773-.943-.773-2.563 0-1.737.855-2.782.86-1.046 2.29-1.046 1.415 0 2.058 1.135h.027v-4.334h1.586zm-1.566-3.2v-.915q0-.746-.485-1.265-.485-.52-1.237-.52-.89 0-1.402.664-.506.663-.506 1.838 0 1.067.486 1.689.492.615 1.32.615.812 0 1.319-.594.505-.602.505-1.511m11.184 3.125q-.465.232-1.224.232-2.037 0-2.037-1.955v-3.958h-1.169V23h1.17v-1.62l1.585-.451V23h1.675v1.244h-1.675v3.5q0 .622.226.889.225.267.752.266.403 0 .697-.232zm2.167-8.395a.97.97 0 0 1-.67-.253.84.84 0 0 1-.273-.642q0-.39.273-.65a.95.95 0 0 1 .67-.26.97.97 0 0 1 .684.26q.28.26.28.65a.85.85 0 0 1-.28.635.97.97 0 0 1-.684.26m.786 8.47H99.45v-7h1.586zm5.77-.075q-.465.232-1.224.232-2.037 0-2.037-1.955v-3.958h-1.169V23h1.169v-1.62l1.586-.451V23h1.675v1.244h-1.675v3.5q0 .622.225.889.226.267.752.266.404 0 .698-.232zm2.96.075h-1.593V19.637h1.593zm7.998-3.07h-4.772q.028.972.595 1.498.574.526 1.572.526a3.46 3.46 0 0 0 2.058-.67v1.279q-.957.6-2.529.601-1.545 0-2.427-.95-.876-.957-.875-2.687 0-1.633.964-2.659.97-1.032 2.406-1.032 1.435 0 2.222.923t.786 2.563zm-1.532-1.12q-.007-.855-.403-1.327-.396-.478-1.094-.478a1.55 1.55 0 0 0-1.162.499q-.471.5-.581 1.306z"/>
      <path fill="#616161" d="M67.606 47h-1.09l-.891-2.355h-3.562L61.225 47h-1.096l3.223-8.402h1.02zm-2.303-3.24-1.319-3.58a3.4 3.4 0 0 1-.129-.563h-.023a3 3 0 0 1-.135.563l-1.306 3.58zM73.84 47h-.961v-1.02h-.023q-.668 1.16-2.063 1.16-1.132 0-1.81-.802-.675-.81-.674-2.197 0-1.49.75-2.385.75-.897 1.998-.897 1.236 0 1.799.973h.023v-3.715h.96zm-.961-2.713v-.885q0-.726-.48-1.23t-1.22-.504q-.878 0-1.382.645t-.504 1.78q0 1.038.48 1.641.487.598 1.301.598.803 0 1.301-.58.504-.58.504-1.465M80.906 47h-.96v-1.02h-.024q-.668 1.16-2.063 1.16-1.13 0-1.81-.802-.674-.81-.674-2.197 0-1.49.75-2.385.75-.897 1.998-.897 1.236 0 1.799.973h.023v-3.715h.961zm-.96-2.713v-.885q0-.726-.481-1.23-.48-.504-1.219-.504-.879 0-1.383.645t-.504 1.78q0 1.038.48 1.641.488.598 1.302.598.802 0 1.3-.58.504-.58.504-1.465m3.398-4.81a.61.61 0 0 1-.621-.621q0-.27.181-.446a.6.6 0 0 1 .44-.181q.263 0 .445.181a.58.58 0 0 1 .188.446.6.6 0 0 1-.188.439.6.6 0 0 1-.445.182m.47 7.523h-.961v-6h.96zm4.728-.059q-.34.188-.897.188-1.575 0-1.576-1.758v-3.55h-1.03V41h1.03v-1.465l.961-.31V41h1.512v.82h-1.512v3.381q0 .604.205.861.206.258.68.258.363 0 .627-.199zm1.775-7.464a.61.61 0 0 1-.62-.621q0-.27.181-.446a.6.6 0 0 1 .44-.181q.263 0 .445.181a.58.58 0 0 1 .187.446.6.6 0 0 1-.187.439.6.6 0 0 1-.446.182m.47 7.523h-.962v-6h.961zm4.452.14q-1.329 0-2.127-.837-.79-.844-.79-2.233 0-1.512.826-2.361.825-.85 2.232-.85 1.342 0 2.092.826.756.827.756 2.292 0 1.435-.815 2.302-.809.861-2.174.862m.07-5.472q-.926 0-1.464.633-.54.627-.54 1.734 0 1.067.546 1.682.545.615 1.459.615.93 0 1.43-.604.503-.603.503-1.716 0-1.125-.504-1.735-.497-.609-1.43-.609M104.743 47h-.961v-3.422q0-1.91-1.394-1.91a1.52 1.52 0 0 0-1.196.545q-.468.54-.468 1.365V47h-.961v-6h.961v.996h.023q.68-1.137 1.969-1.137.984 0 1.506.639.52.633.521 1.834zm6.112 0h-.961v-.937h-.024q-.627 1.078-1.846 1.078-.896 0-1.406-.475-.504-.474-.504-1.26 0-1.68 1.981-1.957l1.799-.252q0-1.53-1.237-1.529-1.084 0-1.957.738v-.984q.885-.563 2.039-.563 2.115 0 2.116 2.239zm-.961-3.035-1.448.2q-.668.093-1.007.333-.34.235-.34.838 0 .44.31.72.316.276.838.276.715 0 1.178-.498.468-.504.469-1.272zM113.625 47h-.961v-8.883h.961zm13.758 0h-.961v-3.445q0-.996-.311-1.442-.305-.445-1.031-.445-.615 0-1.049.563-.427.562-.427 1.347V47h-.961v-3.562q0-1.77-1.366-1.77-.632 0-1.043.533-.41.527-.41 1.377V47h-.961v-6h.961v.95h.024q.638-1.09 1.863-1.09.615 0 1.072.345.457.34.627.897.668-1.243 1.992-1.243 1.981 0 1.981 2.444zm6.638-2.76h-4.236q.023 1.002.539 1.547t1.418.545q1.014 0 1.863-.668v.902q-.79.575-2.091.575-1.272 0-1.998-.815-.727-.82-.727-2.303 0-1.4.791-2.279.797-.885 1.975-.885t1.822.762.644 2.115zm-.984-.814q-.006-.832-.404-1.295-.393-.463-1.096-.463-.68 0-1.154.486-.475.486-.586 1.272zm5.227 3.515q-.34.188-.897.188-1.576 0-1.576-1.758v-3.55h-1.031V41h1.031v-1.465l.961-.31V41h1.512v.82h-1.512v3.381q0 .604.205.861.205.258.68.258.363 0 .627-.199zm5.578.059h-.961v-.937h-.024q-.627 1.078-1.845 1.078-.897 0-1.407-.475-.503-.474-.503-1.26 0-1.68 1.98-1.957l1.799-.252q0-1.53-1.236-1.529-1.084 0-1.957.738v-.984q.884-.563 2.039-.563 2.115 0 2.115 2.239zm-.961-3.035-1.447.2q-.669.093-1.008.333-.34.235-.34.838 0 .44.31.72.317.276.838.276.716 0 1.178-.498.47-.504.469-1.272zM150.773 47h-.961v-1.02h-.023q-.668 1.16-2.062 1.16-1.131 0-1.811-.802-.674-.81-.674-2.197 0-1.49.75-2.385.75-.897 1.998-.897 1.236 0 1.799.973h.023v-3.715h.961zm-.961-2.713v-.885q0-.726-.48-1.23t-1.219-.504q-.879 0-1.383.645-.503.645-.503 1.78 0 1.038.48 1.641.486.598 1.301.598.803 0 1.301-.58.504-.58.503-1.465M157.014 47h-.961v-.937h-.024q-.627 1.078-1.845 1.078-.897 0-1.407-.475-.504-.474-.504-1.26 0-1.68 1.981-1.957l1.799-.252q0-1.53-1.237-1.529-1.084 0-1.957.738v-.984q.885-.563 2.039-.563 2.116 0 2.116 2.239zm-.961-3.035-1.448.2q-.668.093-1.007.333-.34.235-.34.838 0 .44.31.72.317.276.838.276.715 0 1.178-.498.469-.504.469-1.272zm5.554 2.976q-.34.188-.896.188-1.576 0-1.576-1.758v-3.55h-1.031V41h1.031v-1.465l.961-.31V41h1.511v.82h-1.511v3.381q0 .604.205.861.205.258.679.258.364 0 .627-.199zm5.579.059h-.961v-.937h-.024q-.627 1.078-1.846 1.078-.896 0-1.406-.475-.504-.474-.504-1.26 0-1.68 1.981-1.957l1.799-.252q0-1.53-1.237-1.529-1.084 0-1.957.738v-.984q.885-.563 2.039-.563 2.115 0 2.116 2.239zm-.961-3.035-1.448.2q-.668.093-1.007.333-.34.235-.34.838 0 .44.31.72.316.276.838.276.715 0 1.178-.498.469-.504.469-1.272z"/>
      <path fill="#424242" d="M292.25 32a1.25 1.25 0 1 1-2.5 0 1.25 1.25 0 0 1 2.5 0m5 0a1.25 1.25 0 1 1-2.5 0 1.25 1.25 0 0 1 2.5 0m3.75 1.25a1.25 1.25 0 1 0 0-2.5 1.25 1.25 0 0 0 0 2.5M22.82 74.648q-.93.493-2.32.493-1.793 0-2.871-1.155-1.078-1.154-1.078-3.029 0-2.016 1.213-3.258 1.212-1.242 3.076-1.242 1.196 0 1.98.346v1.049a4 4 0 0 0-1.992-.504q-1.447 0-2.35.966-.896.967-.896 2.584 0 1.535.838 2.45.844.908 2.209.908 1.266 0 2.191-.563zm4.09.493q-1.33 0-2.127-.838-.79-.844-.79-2.233 0-1.511.825-2.361.826-.85 2.233-.85 1.342 0 2.092.827.755.826.755 2.29 0 1.436-.814 2.303-.81.862-2.174.862m.07-5.473q-.926 0-1.464.633-.54.627-.54 1.734 0 1.067.546 1.682.545.615 1.459.615.93 0 1.43-.603.503-.604.503-1.717 0-1.125-.504-1.735-.497-.609-1.43-.609m5.438 4.465h-.023v3.627h-.961V69h.96v1.055h.024q.71-1.196 2.074-1.196 1.16 0 1.81.809.651.803.651 2.156 0 1.506-.732 2.414-.733.903-2.004.903-1.166 0-1.799-1.008m-.023-2.42v.838q0 .744.48 1.265.486.516 1.23.516.874 0 1.366-.668.498-.668.498-1.857 0-1.002-.463-1.57-.463-.57-1.254-.569-.838 0-1.348.586-.51.58-.51 1.459m6.585-4.236a.61.61 0 0 1-.62-.621q0-.27.181-.446a.6.6 0 0 1 .44-.181q.263 0 .445.181a.58.58 0 0 1 .187.446.6.6 0 0 1-.187.439.6.6 0 0 1-.446.182M39.45 75h-.962v-6h.961zm2.905 0h-.96v-8.883h.96zm4.454.14q-1.33 0-2.127-.837-.791-.844-.791-2.233 0-1.511.826-2.361t2.232-.85q1.342 0 2.092.827.756.826.756 2.29 0 1.436-.815 2.303-.808.862-2.173.862m.07-5.472q-.926 0-1.465.633-.54.627-.539 1.734 0 1.067.545 1.682t1.459.615q.932 0 1.43-.603.504-.604.504-1.717 0-1.125-.504-1.735-.498-.609-1.43-.609m7.236 5.273q-.34.188-.896.188-1.576 0-1.576-1.758v-3.55H50.61V69h1.032v-1.465l.96-.31V69h1.512v.82h-1.512v3.381q0 .604.206.862.204.257.68.257.363 0 .626-.199zm5.069-7.464a.61.61 0 0 1-.621-.621q0-.27.181-.446a.6.6 0 0 1 .44-.181q.263 0 .445.181a.58.58 0 0 1 .187.446.6.6 0 0 1-.187.439.6.6 0 0 1-.445.182M59.652 75h-.96v-6h.96zm1.582-.217v-1.031q.786.58 1.729.58 1.266 0 1.265-.844a.7.7 0 0 0-.11-.404 1 1 0 0 0-.294-.299 2 2 0 0 0-.433-.228q-.246-.105-.534-.217a8 8 0 0 1-.703-.317q-.298-.163-.504-.363a1.5 1.5 0 0 1-.304-.463 1.7 1.7 0 0 1-.1-.603q0-.422.194-.744.192-.329.515-.545.323-.223.733-.334.416-.112.855-.112.78 0 1.395.27v.973a2.7 2.7 0 0 0-1.524-.434q-.27 0-.486.064-.218.06-.375.17a.8.8 0 0 0-.24.27.7.7 0 0 0-.083.34q0 .234.083.392.087.159.252.282.164.123.398.222.234.1.533.217.399.153.715.316.315.159.539.364.222.199.34.463.123.263.123.626 0 .446-.2.774-.192.328-.52.545-.329.217-.757.322t-.896.106q-.926 0-1.606-.358m13.05.217h-.962v-.937H73.3q-.627 1.078-1.846 1.078-.896 0-1.406-.475-.504-.474-.504-1.26 0-1.68 1.98-1.957l1.8-.252q0-1.53-1.237-1.529-1.084 0-1.957.738v-.984q.885-.563 2.039-.563 2.115 0 2.115 2.239zm-.962-3.035-1.447.2q-.668.093-1.008.333-.34.235-.34.838 0 .44.31.72.317.276.839.276.715 0 1.177-.498.47-.504.47-1.272zM81.074 75h-.96v-3.422q0-1.91-1.395-1.91-.721 0-1.196.545-.468.54-.468 1.365V75h-.961v-6h.96v.996h.024q.68-1.137 1.969-1.137.984 0 1.506.639.52.633.521 1.834zm11.742 0h-1.09l-.89-2.356h-3.563L86.436 75H85.34l3.222-8.402h1.02zm-2.302-3.24-1.319-3.58a3.4 3.4 0 0 1-.129-.563h-.023q-.06.358-.135.563l-1.306 3.58zM95.043 75h-.984v-8.402h.984zm8.162-.059q-.34.188-.896.188-1.577 0-1.577-1.758v-3.55h-1.03V69h1.03v-1.465l.961-.31V69h1.512v.82h-1.512v3.381q0 .604.205.862.206.257.68.257.363 0 .627-.199zm3.791.2q-1.33 0-2.127-.838-.79-.844-.791-2.233 0-1.511.826-2.361t2.233-.85q1.342 0 2.092.827.755.826.755 2.29 0 1.436-.814 2.303-.809.862-2.174.862m.07-5.473q-.926 0-1.464.633-.54.627-.54 1.734 0 1.067.545 1.682.546.615 1.459.615.933 0 1.43-.603.504-.604.504-1.717 0-1.125-.504-1.735-.497-.609-1.43-.609m6.961 5.473q-1.329 0-2.127-.838-.79-.844-.791-2.233 0-1.511.827-2.361.825-.85 2.232-.85 1.342 0 2.092.827.756.826.756 2.29 0 1.436-.815 2.303-.808.862-2.174.862m.071-5.473q-.927 0-1.465.633-.54.627-.539 1.734 0 1.067.545 1.682.544.615 1.459.615.931 0 1.429-.603.504-.604.504-1.717 0-1.125-.504-1.735-.498-.609-1.429-.609M119.512 75h-.961v-8.883h.961zm10.359 0h-.961v-1.02h-.023q-.668 1.16-2.063 1.16-1.13 0-1.81-.802-.674-.81-.674-2.197 0-1.49.75-2.385.75-.897 1.998-.897 1.236 0 1.799.973h.023v-3.715h.961zm-.961-2.713v-.885q0-.726-.48-1.23-.481-.504-1.219-.504-.879 0-1.383.644-.504.645-.504 1.782 0 1.037.481 1.64.486.598 1.3.598.803 0 1.301-.58.504-.58.504-1.465m7.729-.047h-4.237q.024 1.002.539 1.547.516.545 1.418.545 1.014 0 1.864-.668v.902q-.792.575-2.092.575-1.272 0-1.998-.815-.727-.82-.727-2.303 0-1.4.791-2.279.798-.885 1.975-.885t1.822.762.645 2.115zm-.985-.814q-.005-.833-.404-1.295-.393-.463-1.096-.463-.68 0-1.154.486-.474.487-.586 1.272zm2.08 3.357v-1.031q.786.58 1.729.58 1.266 0 1.266-.844a.7.7 0 0 0-.112-.404 1 1 0 0 0-.293-.299 2 2 0 0 0-.433-.228 16 16 0 0 0-.534-.217q-.398-.159-.703-.317a2.3 2.3 0 0 1-.504-.363 1.5 1.5 0 0 1-.304-.463 1.7 1.7 0 0 1-.1-.603q0-.422.193-.744.194-.329.516-.545.322-.223.733-.334a3.3 3.3 0 0 1 .855-.112q.779 0 1.395.27v.973a2.7 2.7 0 0 0-1.524-.434 1.7 1.7 0 0 0-.486.064q-.218.06-.375.17a.8.8 0 0 0-.241.27.7.7 0 0 0-.082.34q0 .234.082.392.089.159.252.282.165.123.399.222.234.1.533.217.399.153.715.316.317.159.539.364.222.199.34.463.123.263.123.626 0 .446-.199.774-.193.328-.522.545a2.4 2.4 0 0 1-.756.322 3.7 3.7 0 0 1-.896.106q-.925 0-1.606-.358m5.954-7.306a.61.61 0 0 1-.622-.621q0-.27.182-.446a.6.6 0 0 1 .44-.181q.263 0 .445.181a.58.58 0 0 1 .187.446.6.6 0 0 1-.187.439.6.6 0 0 1-.445.182m.468 7.523h-.961v-6h.961zm7.067-.48q0 3.304-3.164 3.304-1.114 0-1.946-.422v-.96q1.014.561 1.934.562 2.214 0 2.215-2.356v-.656h-.024q-.685 1.149-2.062 1.149-1.12 0-1.805-.797-.68-.803-.68-2.15 0-1.53.733-2.432.738-.903 2.015-.903 1.214 0 1.799.973h.024V69h.961zm-.961-2.233v-.885q0-.714-.487-1.224a1.58 1.58 0 0 0-1.201-.51q-.89 0-1.394.65-.504.646-.504 1.81 0 1.003.48 1.606.486.598 1.283.598.81 0 1.313-.574.51-.575.51-1.47M158.148 75h-.96v-3.422q0-1.91-1.395-1.91-.721 0-1.195.545-.47.54-.469 1.365V75h-.961v-6h.961v.996h.023q.68-1.137 1.969-1.137.984 0 1.506.639.522.633.521 1.834zm6.639-2.76h-4.236q.023 1.002.539 1.547t1.418.545q1.014 0 1.863-.668v.902q-.791.575-2.092.575-1.27 0-1.998-.815-.726-.82-.726-2.303 0-1.4.791-2.279.797-.885 1.974-.885t1.823.762q.644.762.644 2.115zm-.984-.814q-.006-.833-.405-1.295-.392-.463-1.095-.463-.68 0-1.155.486-.474.487-.586 1.272zM171.367 75h-.961v-1.02h-.023q-.668 1.16-2.063 1.16-1.13 0-1.81-.802-.674-.81-.674-2.197 0-1.49.75-2.385.75-.897 1.998-.897 1.236 0 1.799.973h.023v-3.715h.961zm-.961-2.713v-.885q0-.726-.48-1.23-.481-.504-1.219-.504-.879 0-1.383.644-.504.645-.504 1.782 0 1.037.481 1.64.486.598 1.301.598.802 0 1.3-.58.504-.58.504-1.465m8.983 2.654q-.34.188-.897.188-1.576 0-1.576-1.758v-3.55h-1.031V69h1.031v-1.465l.961-.31V69h1.512v.82h-1.512v3.381q0 .604.205.862.205.257.68.257.363 0 .627-.199zm3.791.2q-1.33 0-2.127-.838-.791-.844-.791-2.233 0-1.511.826-2.361t2.232-.85q1.342 0 2.092.827.756.826.756 2.29 0 1.436-.814 2.303-.81.862-2.174.862m.07-5.473q-.925 0-1.465.633-.539.627-.539 1.734 0 1.067.545 1.682t1.459.615q.932 0 1.43-.603.504-.604.504-1.717 0-1.125-.504-1.735-.498-.609-1.43-.609m8.238-2.191a.607.607 0 0 1-.621-.621q0-.27.182-.446a.6.6 0 0 1 .439-.181q.264 0 .446.181a.58.58 0 0 1 .187.446.6.6 0 0 1-.187.439.6.6 0 0 1-.446.182m.469 7.523h-.961v-6h.961zm10.465 0h-.961v-3.445q0-.996-.311-1.442-.304-.445-1.031-.445-.615 0-1.049.563-.427.563-.427 1.347V75h-.961v-3.562q0-1.77-1.366-1.77-.632 0-1.043.533-.41.527-.41 1.377V75h-.961v-6h.961v.95h.024q.638-1.09 1.863-1.09.615 0 1.072.345.458.34.627.897.669-1.243 1.992-1.243 1.981 0 1.981 2.444zm2.801-.867h-.024v3.627h-.961V69h.961v1.055h.024q.709-1.196 2.074-1.196 1.16 0 1.81.809.651.803.651 2.156 0 1.506-.733 2.414-.732.903-2.004.903-1.165 0-1.798-1.008m-.024-2.42v.838q0 .744.481 1.265.486.516 1.23.516.873 0 1.365-.668.498-.668.498-1.857 0-1.002-.462-1.57-.464-.57-1.254-.569-.838 0-1.348.586-.51.58-.51 1.459m9.223-1.74q-.252-.195-.727-.194-.615 0-1.031.58-.41.58-.41 1.582V75h-.961v-6h.961v1.236h.023q.205-.633.627-.984.423-.358.944-.358.375 0 .574.083zm3.551 5.168q-1.33 0-2.127-.838-.791-.844-.791-2.233 0-1.511.826-2.361t2.232-.85q1.342 0 2.092.827.756.826.756 2.29 0 1.436-.815 2.303-.808.862-2.173.862m.07-5.473q-.925 0-1.465.633-.539.627-.539 1.734 0 1.067.545 1.682t1.459.615q.932 0 1.43-.603.504-.604.504-1.717 0-1.125-.504-1.735-.498-.609-1.43-.609m9.17-.668-2.391 6h-.943l-2.274-6h1.055l1.524 4.36q.17.48.211.837h.023q.059-.45.187-.814L226.199 69zm5.859 3.24h-4.236q.024 1.002.539 1.547t1.418.545q1.014 0 1.863-.668v.902q-.79.575-2.092.575-1.27 0-1.998-.815-.726-.82-.726-2.303 0-1.4.791-2.279.797-.885 1.974-.885t1.823.762q.644.762.644 2.115zm-.984-.814q-.006-.833-.404-1.295-.393-.463-1.096-.463-.68 0-1.154.486-.475.487-.586 1.272zm6.721 2.707h-.024v3.627h-.961V69h.961v1.055h.024q.709-1.196 2.074-1.196 1.16 0 1.81.809.651.803.651 2.156 0 1.506-.733 2.414-.732.903-2.004.903-1.166 0-1.798-1.008m-.024-2.42v.838q0 .744.481 1.265.486.516 1.23.516.873 0 1.365-.668.498-.668.498-1.857 0-1.002-.463-1.57-.462-.57-1.253-.569-.838 0-1.348.586-.51.58-.51 1.459m9.223-1.74q-.252-.195-.727-.194-.615 0-1.031.58-.41.58-.41 1.582V75h-.961v-6h.961v1.236h.023q.205-.633.627-.984.422-.358.944-.358.375 0 .574.083zm3.551 5.168q-1.33 0-2.127-.838-.791-.844-.791-2.233 0-1.511.826-2.361t2.232-.85q1.342 0 2.092.827.756.826.756 2.29 0 1.436-.815 2.303-.808.862-2.173.862m.07-5.473q-.926 0-1.465.633-.539.627-.539 1.734 0 1.067.545 1.682t1.459.615q.932 0 1.43-.603.504-.604.503-1.717 0-1.125-.503-1.735-.498-.609-1.43-.609M261.203 75h-.961v-1.02h-.023q-.668 1.16-2.063 1.16-1.13 0-1.81-.802-.674-.81-.674-2.197 0-1.49.75-2.385.75-.897 1.998-.897 1.236 0 1.799.973h.023v-3.715h.961zm-.961-2.713v-.885q0-.726-.48-1.23-.481-.504-1.219-.504-.879 0-1.383.644-.504.645-.504 1.782 0 1.037.481 1.64.486.598 1.301.598.802 0 1.3-.58.504-.58.504-1.465M268 75h-.961v-.95h-.023q-.598 1.09-1.852 1.09-2.144.001-2.144-2.554V69h.955v3.434q0 1.898 1.453 1.898.702 0 1.154-.516.457-.52.457-1.359V69H268zm6.035-.275q-.692.416-1.64.416-1.284 0-2.075-.832-.785-.839-.785-2.168 0-1.483.85-2.38.85-.901 2.267-.902.792 0 1.395.293v.985a2.44 2.44 0 0 0-1.43-.469q-.92 0-1.512.662-.585.657-.585 1.729 0 1.054.55 1.664.557.609 1.489.609.784 0 1.476-.521zm4.236.216q-.34.188-.896.188-1.576 0-1.576-1.758v-3.55h-1.031V69h1.031v-1.465l.961-.31V69h1.511v.82h-1.511v3.381q0 .604.205.862.205.257.68.257.363 0 .626-.199zm1.776-7.464a.61.61 0 0 1-.621-.621q0-.27.181-.446a.6.6 0 0 1 .44-.181q.264 0 .445.181a.58.58 0 0 1 .188.446.6.6 0 0 1-.188.439.6.6 0 0 1-.445.182m.469 7.523h-.961v-6h.961zm6.662-6-2.391 6h-.943l-2.274-6h1.055l1.523 4.36q.17.48.211.837h.024q.058-.45.187-.814L286.164 69zm1.529-1.523a.6.6 0 0 1-.439-.176.6.6 0 0 1-.182-.445q0-.27.182-.446a.6.6 0 0 1 .439-.181q.264 0 .445.181a.58.58 0 0 1 .188.446.6.6 0 0 1-.188.439.6.6 0 0 1-.445.182m.469 7.523h-.961v-6h.961zm4.728-.059q-.34.188-.896.188-1.576 0-1.576-1.758v-3.55H290.4V69h1.032v-1.465l.961-.31V69h1.511v.82h-1.511v3.381q0 .604.205.862.204.257.679.257.364 0 .627-.199zM299.963 69l-2.76 6.96q-.738 1.864-2.074 1.864-.375 0-.627-.076v-.861q.31.105.568.105.727 0 1.09-.867l.481-1.137L294.297 69h1.066l1.623 4.617q.03.088.123.457h.036q.029-.14.117-.445L298.967 69zM17.957 90.133h-.023V91h-.961v-8.883h.96v3.938h.024q.71-1.196 2.074-1.196 1.154 0 1.805.809.656.803.656 2.156 0 1.506-.732 2.414-.733.903-2.004.903-1.19 0-1.799-1.008m-.023-2.42v.838q0 .744.48 1.265.486.516 1.23.516.874 0 1.366-.668.498-.668.498-1.857 0-1.002-.463-1.57-.463-.57-1.254-.569-.838 0-1.348.586-.51.58-.51 1.459M28.803 85l-2.76 6.96q-.739 1.864-2.074 1.864-.376 0-.627-.076v-.861q.31.105.568.105.727 0 1.09-.867l.48-1.137L23.138 85h1.066l1.623 4.617q.03.088.123.457h.035a7 7 0 0 1 .118-.445L27.807 85zm4.822-1.523a.61.61 0 0 1-.621-.621q0-.27.181-.446a.6.6 0 0 1 .44-.181q.264 0 .445.181a.58.58 0 0 1 .188.446.6.6 0 0 1-.188.439.6.6 0 0 1-.445.182M34.094 91h-.961v-6h.96zm6.926 0h-.961v-3.422q0-1.91-1.395-1.91-.72 0-1.195.545-.47.54-.469 1.365V91h-.96v-6H37v.996h.023q.68-1.137 1.97-1.137.983 0 1.505.639.522.633.522 1.834zm4.6-.059q-.34.188-.897.188-1.576 0-1.576-1.758v-3.55h-1.032V85h1.032v-1.465l.96-.31V85h1.512v.82h-1.512v3.381q0 .604.206.862.204.257.68.257.362 0 .626-.199zm6.105-2.7h-4.237q.024 1.001.54 1.546.515.545 1.417.545 1.014 0 1.864-.668v.902q-.792.575-2.092.575-1.272 0-1.998-.815-.727-.82-.727-2.303 0-1.4.791-2.279.798-.885 1.975-.885t1.822.762.645 2.115zm-.985-.815q-.005-.833-.404-1.295-.393-.463-1.096-.463-.68 0-1.154.486-.475.487-.586 1.272zm7.565 3.093q0 3.305-3.164 3.305-1.114 0-1.946-.422v-.96q1.014.561 1.934.562 2.215 0 2.215-2.356v-.656h-.024q-.685 1.149-2.062 1.149-1.12 0-1.805-.797-.68-.803-.68-2.15 0-1.53.733-2.432.738-.903 2.016-.903 1.212 0 1.798.973h.024V85h.96zm-.961-2.232v-.885q0-.714-.487-1.224-.48-.51-1.2-.51-.892 0-1.395.65-.504.646-.504 1.81 0 1.003.48 1.606.487.598 1.284.598.807 0 1.312-.574.51-.575.51-1.47m6.035-2.314q-.252-.195-.727-.194-.615 0-1.03.58-.411.58-.411 1.582V91h-.961v-6h.96v1.236h.024q.206-.633.627-.984.422-.358.944-.358.375 0 .574.083zM68.717 91h-.961v-.937h-.024q-.627 1.078-1.845 1.078-.897 0-1.406-.475-.505-.474-.504-1.26 0-1.68 1.98-1.957l1.799-.252q0-1.53-1.237-1.529-1.084 0-1.957.738v-.984q.885-.563 2.04-.563 2.115 0 2.115 2.239zm-.961-3.035-1.447.2q-.669.093-1.008.333-.34.235-.34.838 0 .44.31.72.316.276.838.276.716 0 1.178-.498.47-.504.469-1.272zm5.555 2.976q-.34.188-.897.188-1.575 0-1.576-1.758v-3.55h-1.031V85h1.03v-1.465l.962-.31V85h1.511v.82H71.8v3.381q0 .604.205.862.205.257.68.257.362 0 .627-.199zm1.775-7.464a.61.61 0 0 1-.621-.621q0-.27.181-.446a.6.6 0 0 1 .44-.181q.264 0 .445.181a.58.58 0 0 1 .188.446.6.6 0 0 1-.188.439.6.6 0 0 1-.445.182M75.555 91h-.961v-6h.96zm6.926 0h-.962v-3.422q0-1.91-1.394-1.91-.72 0-1.195.545-.47.54-.47 1.365V91h-.96v-6h.96v.996h.024q.68-1.137 1.97-1.137.983 0 1.505.639.522.633.522 1.834zm6.937-.48q0 3.304-3.164 3.304-1.113 0-1.945-.422v-.96q1.013.561 1.933.562 2.215 0 2.215-2.356v-.656h-.023q-.686 1.149-2.063 1.149-1.12 0-1.805-.797-.68-.803-.68-2.15 0-1.53.733-2.432.738-.903 2.016-.903 1.212 0 1.799.973h.023V85h.961zm-.961-2.233v-.885q0-.714-.486-1.224-.48-.51-1.202-.51-.89 0-1.394.65-.504.646-.504 1.81 0 1.003.48 1.606.487.598 1.284.598.808 0 1.312-.574.51-.575.51-1.47M102.215 85l-1.799 6h-.996l-1.236-4.295a3 3 0 0 1-.094-.557h-.024q-.017.212-.123.545L96.602 91h-.961l-1.817-6h1.008l1.242 4.512q.06.204.082.539h.047a2.5 2.5 0 0 1 .106-.551L97.69 85h.88l1.242 4.523q.059.218.087.54h.047q.012-.229.1-.54l1.22-4.523zm1.605-1.523a.607.607 0 0 1-.621-.621q0-.27.182-.446a.6.6 0 0 1 .439-.181q.264 0 .446.181a.58.58 0 0 1 .187.446.6.6 0 0 1-.187.439.6.6 0 0 1-.446.182m.469 7.523h-.961v-6h.961zm4.729-.059q-.34.188-.897.188-1.576 0-1.576-1.758v-3.55h-1.031V85h1.031v-1.465l.961-.31V85h1.512v.82h-1.512v3.381q0 .604.205.862.205.257.68.257.363 0 .627-.199zm6.263.059h-.961v-3.457q0-1.875-1.394-1.875-.704 0-1.184.545-.48.54-.48 1.389V91h-.961v-8.883h.961v3.88h.023q.691-1.138 1.969-1.138 2.027 0 2.027 2.444zm13.805 0h-.979v-5.637q0-.667.082-1.635h-.023q-.141.569-.252.815L125.043 91h-.481l-2.865-6.41q-.123-.282-.252-.862h-.023q.047.505.047 1.647V91h-.949v-8.402h1.3l2.578 5.859q.3.674.387 1.008h.035q.252-.692.405-1.031l2.63-5.836h1.231zm2.578-7.523a.607.607 0 0 1-.621-.621q0-.27.182-.446a.6.6 0 0 1 .439-.181q.264 0 .445.181a.58.58 0 0 1 .188.446.6.6 0 0 1-.188.439.6.6 0 0 1-.445.182m.469 7.523h-.961v-6h.961zm6.035-.275q-.692.416-1.641.416-1.283 0-2.074-.832-.785-.839-.785-2.168 0-1.483.85-2.38.85-.901 2.267-.902.79 0 1.395.293v.985a2.44 2.44 0 0 0-1.43-.469q-.92 0-1.512.662-.585.657-.586 1.729 0 1.054.551 1.664.556.609 1.488.609.786 0 1.477-.521zm4.582-4.752q-.252-.195-.727-.194-.614 0-1.031.58-.41.58-.41 1.582V91h-.961v-6h.961v1.236h.023q.206-.633.627-.984.423-.358.944-.358.375 0 .574.083zm3.551 5.168q-1.33 0-2.127-.838-.792-.844-.791-2.233 0-1.511.826-2.361t2.232-.85q1.342 0 2.092.827.756.826.756 2.29 0 1.436-.814 2.303-.809.862-2.174.862m.07-5.473q-.925 0-1.465.633-.539.627-.539 1.734 0 1.067.545 1.682t1.459.615q.932 0 1.43-.603.504-.604.504-1.717 0-1.125-.504-1.735-.498-.609-1.43-.609m4.09 5.115v-1.031q.785.58 1.728.58 1.266 0 1.266-.844a.7.7 0 0 0-.111-.404 1 1 0 0 0-.293-.299 2 2 0 0 0-.434-.228q-.246-.105-.533-.217-.399-.159-.703-.317a2.3 2.3 0 0 1-.504-.363 1.5 1.5 0 0 1-.305-.463 1.7 1.7 0 0 1-.099-.603q0-.422.193-.744.193-.329.516-.545a2.4 2.4 0 0 1 .732-.334q.416-.112.856-.112.779 0 1.394.27v.973q-.662-.434-1.523-.434-.27 0-.487.064-.216.06-.375.17a.84.84 0 0 0-.24.27.7.7 0 0 0-.082.34q0 .234.082.392.089.159.252.282.164.123.398.222.235.1.534.217.398.153.715.316.315.159.539.364.222.199.339.463.123.263.123.626 0 .445-.199.774a1.65 1.65 0 0 1-.521.545 2.4 2.4 0 0 1-.756.322q-.428.105-.897.106-.925 0-1.605-.358m7.969.358q-1.33 0-2.127-.838-.791-.844-.791-2.233 0-1.511.826-2.361t2.232-.85q1.342 0 2.092.827.756.826.756 2.29 0 1.436-.814 2.303-.81.862-2.174.862m.07-5.473q-.925 0-1.465.633-.539.627-.539 1.734 0 1.067.545 1.682t1.459.615q.932 0 1.43-.603.504-.604.504-1.717 0-1.125-.504-1.735-.498-.609-1.43-.609m7.418-2.707a1.3 1.3 0 0 0-.639-.158q-1.008 0-1.008 1.271V85h1.407v.82h-1.407V91h-.955v-5.18h-1.025V85h1.025v-.973q0-.944.545-1.488.546-.55 1.36-.55.44 0 .697.105zm3.58 7.98q-.34.188-.896.188-1.577 0-1.577-1.758v-3.55h-1.031V85h1.031v-1.465l.961-.31V85h1.512v.82h-1.512v3.381q0 .604.205.862.206.257.68.257.363 0 .627-.199zm8.871.059h-.961v-.937h-.023q-.627 1.078-1.846 1.078-.897 0-1.406-.475-.504-.474-.504-1.26 0-1.68 1.98-1.957l1.799-.252q0-1.53-1.236-1.529-1.084 0-1.957.738v-.984q.884-.563 2.039-.563 2.115 0 2.115 2.239zm-.961-3.035-1.447.2q-.668.093-1.008.333-.34.235-.34.838a.93.93 0 0 0 .311.72q.316.276.838.276.714 0 1.177-.498.47-.504.469-1.272zm3.756 2.168h-.023v3.627h-.961V85h.961v1.055h.023q.71-1.196 2.074-1.196 1.16 0 1.811.809.65.803.65 2.156 0 1.506-.732 2.414-.732.903-2.004.903-1.166 0-1.799-1.008m-.023-2.42v.838q0 .744.48 1.265.486.516 1.231.516.873 0 1.365-.668.498-.668.498-1.857 0-1.002-.463-1.57-.464-.57-1.254-.569-.838 0-1.348.586-.509.58-.509 1.459m7.078 2.42h-.024v3.627h-.961V85h.961v1.055h.024q.708-1.196 2.074-1.196 1.16 0 1.811.809.65.803.65 2.156 0 1.506-.733 2.414-.732.903-2.003.903-1.167 0-1.799-1.008m-.024-2.42v.838q0 .744.481 1.265.486.516 1.23.516.873 0 1.365-.668.5-.668.499-1.857 0-1.002-.463-1.57-.464-.57-1.254-.569-.838 0-1.348.586-.51.58-.51 1.459M195.25 91h-.961v-8.883h.961zm2.438-7.523a.61.61 0 0 1-.622-.621q0-.27.182-.446a.6.6 0 0 1 .44-.181q.263 0 .445.181a.58.58 0 0 1 .187.446.6.6 0 0 1-.187.439.6.6 0 0 1-.445.182m.468 7.523h-.961v-6h.961zm6.035-.275q-.691.416-1.64.416-1.284 0-2.074-.832-.786-.839-.786-2.168 0-1.483.85-2.38.849-.901 2.268-.902.79 0 1.394.293v.985a2.44 2.44 0 0 0-1.43-.469q-.92 0-1.511.662-.586.657-.586 1.729 0 1.054.551 1.664.556.609 1.488.609.784 0 1.476-.521zm5.748.275h-.96v-.937h-.024q-.627 1.078-1.846 1.078-.896 0-1.406-.475-.504-.474-.504-1.26 0-1.68 1.981-1.957l1.799-.252q0-1.53-1.237-1.529-1.083 0-1.957.738v-.984q.885-.563 2.039-.563 2.115 0 2.115 2.239zm-.96-3.035-1.448.2q-.668.093-1.008.333-.339.235-.339.838 0 .44.31.72.316.276.838.276.715 0 1.178-.498.469-.504.469-1.272zm5.554 2.976q-.34.188-.896.188-1.576 0-1.576-1.758v-3.55h-1.032V85h1.032v-1.465l.96-.31V85h1.512v.82h-1.512v3.381q0 .604.206.862.204.257.679.257.363 0 .627-.199zm1.776-7.464a.61.61 0 0 1-.621-.621q0-.27.181-.446a.6.6 0 0 1 .44-.181q.263 0 .445.181a.58.58 0 0 1 .187.446.6.6 0 0 1-.187.439.6.6 0 0 1-.445.182m.468 7.523h-.961v-6h.961zm4.453.14q-1.33 0-2.126-.837-.792-.844-.792-2.233 0-1.511.827-2.361.826-.85 2.232-.85 1.342 0 2.092.827.756.826.756 2.29 0 1.436-.815 2.303-.808.862-2.174.862m.071-5.472q-.926 0-1.465.633-.539.627-.539 1.734 0 1.067.545 1.682.544.615 1.459.615.931 0 1.429-.603.504-.604.504-1.717 0-1.125-.504-1.735-.498-.609-1.429-.609M230.734 91h-.961v-3.422q0-1.91-1.394-1.91-.721 0-1.195.545-.47.54-.469 1.365V91h-.961v-6h.961v.996h.023q.68-1.137 1.969-1.137.984 0 1.506.639.522.633.521 1.834zm1.454-.217v-1.031q.784.58 1.728.58 1.266 0 1.266-.844a.7.7 0 0 0-.112-.404 1 1 0 0 0-.293-.299 2 2 0 0 0-.433-.228q-.246-.105-.533-.217-.399-.159-.704-.317a2.3 2.3 0 0 1-.503-.363 1.4 1.4 0 0 1-.305-.463 1.7 1.7 0 0 1-.1-.603q0-.422.194-.744.192-.329.515-.545.322-.223.733-.334a3.3 3.3 0 0 1 .855-.112q.78 0 1.395.27v.973a2.7 2.7 0 0 0-1.524-.434q-.27 0-.486.064-.218.06-.375.17a.8.8 0 0 0-.24.27.7.7 0 0 0-.082.34q0 .234.082.392.087.159.252.282.164.123.398.222.234.1.533.217.399.153.715.316.317.159.539.364.223.199.34.463.123.263.123.626 0 .445-.199.774-.193.328-.522.545a2.4 2.4 0 0 1-.756.322 3.7 3.7 0 0 1-.896.106q-.925 0-1.605-.358m6.339-1.119-.937 2.883h-.686l.686-2.883zm7.524 1.477q-1.33 0-2.127-.838-.791-.844-.791-2.233 0-1.511.826-2.361t2.232-.85q1.342 0 2.092.827.756.826.756 2.29 0 1.436-.814 2.303-.809.862-2.174.862m.07-5.473q-.925 0-1.465.633-.539.627-.539 1.734 0 1.067.545 1.682t1.459.615q.932 0 1.43-.603.504-.604.504-1.717 0-1.125-.504-1.735-.498-.609-1.43-.609m7.418-2.707a1.3 1.3 0 0 0-.639-.158q-1.007 0-1.007 1.271V85h1.406v.82h-1.406V91h-.955v-5.18h-1.026V85h1.026v-.973q0-.944.544-1.488.546-.55 1.36-.55.44 0 .697.105zm3.762 0a1.3 1.3 0 0 0-.639-.158q-1.008 0-1.008 1.271V85h1.407v.82h-1.407V91h-.955v-5.18h-1.025V85h1.025v-.973q0-.944.545-1.488.545-.55 1.36-.55.438 0 .697.105zm5.619 5.28h-4.236q.023 1.001.539 1.546.515.545 1.418.545 1.013 0 1.863-.668v.902q-.791.575-2.092.575-1.272 0-1.998-.815-.726-.82-.726-2.303 0-1.4.791-2.279.796-.885 1.974-.885t1.822.762.645 2.115zm-.984-.815q-.006-.833-.405-1.295-.392-.463-1.095-.463-.68 0-1.155.486-.474.487-.586 1.272zm5.572-1.453q-.252-.195-.727-.194-.615 0-1.031.58-.41.58-.41 1.582V91h-.961v-6h.961v1.236h.023q.205-.633.627-.984.422-.358.944-.358.375 0 .574.083zm1.535-2.496a.6.6 0 0 1-.439-.176.6.6 0 0 1-.182-.445q0-.27.182-.446a.6.6 0 0 1 .439-.181q.264 0 .445.181a.58.58 0 0 1 .188.446.6.6 0 0 1-.188.439.6.6 0 0 1-.445.182m.469 7.523h-.961v-6h.961zm6.926 0h-.961v-3.422q0-1.91-1.395-1.91-.72 0-1.195.545-.47.54-.469 1.365V91h-.961v-6h.961v.996h.023q.68-1.137 1.969-1.137.984 0 1.506.639.522.633.522 1.834zm6.937-.48q0 3.304-3.164 3.304-1.114 0-1.945-.422v-.96q1.013.561 1.933.562 2.215 0 2.215-2.356v-.656h-.023q-.686 1.149-2.063 1.149-1.12 0-1.805-.797-.68-.803-.679-2.15 0-1.53.732-2.432.738-.903 2.016-.903 1.212 0 1.799.973h.023V85h.961zm-.961-2.233v-.885q0-.714-.486-1.224a1.58 1.58 0 0 0-1.201-.51q-.891 0-1.395.65-.504.646-.504 1.81 0 1.003.481 1.606.486.598 1.283.598.808 0 1.312-.574.51-.575.51-1.47M21.063 106.725q-.691.416-1.641.416-1.284 0-2.074-.832-.786-.839-.785-2.168 0-1.484.85-2.379.849-.903 2.267-.903.79 0 1.394.293v.985a2.44 2.44 0 0 0-1.43-.469q-.92 0-1.511.662-.586.657-.586 1.729 0 1.054.55 1.664.558.609 1.489.609.785 0 1.477-.521zm3.96.416q-1.33 0-2.126-.838-.792-.844-.791-2.233 0-1.512.826-2.361t2.232-.85q1.342 0 2.092.827.756.825.756 2.291 0 1.435-.815 2.302-.808.862-2.174.862m.07-5.473q-.925 0-1.464.633-.54.627-.54 1.734 0 1.067.546 1.682.545.615 1.459.615.93 0 1.43-.603.503-.604.503-1.717 0-1.125-.504-1.735-.498-.609-1.43-.609M34.528 107h-.96v-3.422q0-1.91-1.395-1.91-.72 0-1.195.545-.47.538-.47 1.365V107h-.96v-6h.96v.996h.024q.68-1.137 1.969-1.137.984 0 1.506.639.52.633.521 1.834zm4.6-.059q-.34.188-.897.188-1.575 0-1.576-1.758v-3.551h-1.031V101h1.031v-1.465l.961-.31V101h1.512v.82h-1.512v3.381q0 .605.205.861.206.258.68.258.363 0 .627-.199zm6.105-2.701h-4.236q.023 1.002.54 1.547.515.545 1.417.545 1.014 0 1.863-.668v.902q-.79.575-2.091.575-1.272 0-1.998-.815-.727-.82-.727-2.303 0-1.4.791-2.279.797-.885 1.975-.885t1.822.762.644 2.115zm-.984-.814q-.006-.833-.404-1.295-.393-.463-1.096-.463-.68 0-1.154.486-.475.487-.586 1.272zM51.672 107h-.961v-3.422q0-1.91-1.395-1.91-.72 0-1.195.545-.468.538-.469 1.365V107h-.96v-6h.96v.996h.024q.68-1.137 1.968-1.137.986 0 1.506.639.522.633.522 1.834zm4.6-.059q-.34.188-.897.188-1.575 0-1.576-1.758v-3.551h-1.031V101h1.03v-1.465l.962-.31V101h1.512v.82H54.76v3.381q0 .605.205.861.205.258.68.258.362 0 .627-.199zm9.697-.421q0 3.304-3.164 3.304-1.112 0-1.946-.422v-.961q1.014.563 1.934.563 2.215 0 2.215-2.356v-.656h-.024q-.685 1.149-2.062 1.149-1.12 0-1.805-.797-.68-.802-.68-2.151 0-1.529.733-2.431.738-.903 2.015-.903 1.214 0 1.8.973h.023V101h.96zm-.961-2.233v-.885a1.7 1.7 0 0 0-.486-1.224q-.48-.51-1.202-.51-.89 0-1.394.65-.504.645-.504 1.811 0 1.002.48 1.605.487.598 1.283.598.81 0 1.313-.574.51-.574.51-1.471m7.728-.047H68.5q.023 1.002.54 1.547.515.545 1.417.545 1.014 0 1.863-.668v.902q-.79.575-2.091.575-1.272 0-1.998-.815-.727-.82-.727-2.303 0-1.4.79-2.279.798-.885 1.975-.885t1.823.762.644 2.115zm-.984-.814q-.006-.833-.404-1.295-.393-.463-1.096-.463-.68 0-1.154.486-.475.487-.586 1.272zM79.176 107h-.961v-3.422q0-1.91-1.395-1.91-.72 0-1.195.545-.468.538-.469 1.365V107h-.96v-6h.96v.996h.024q.68-1.137 1.968-1.137.986 0 1.506.639.522.633.522 1.834zm6.638-2.76h-4.236q.023 1.002.54 1.547.515.545 1.417.545 1.014 0 1.863-.668v.902q-.79.575-2.091.575-1.272 0-1.998-.815-.727-.82-.727-2.303 0-1.4.791-2.279.797-.885 1.975-.885t1.822.762.644 2.115zm-.984-.814q-.006-.833-.404-1.295-.393-.463-1.096-.463-.68 0-1.154.486-.475.487-.586 1.272zm5.572-1.453q-.252-.194-.726-.194-.615 0-1.032.58-.41.58-.41 1.582V107h-.96v-6h.96v1.236h.024q.205-.633.627-.984.422-.357.943-.357.375 0 .574.082zM95.74 107h-.96v-.938h-.024q-.627 1.079-1.846 1.079-.896 0-1.406-.475-.504-.474-.504-1.26 0-1.681 1.98-1.957l1.8-.252q0-1.529-1.237-1.529-1.084 0-1.957.738v-.984q.885-.563 2.039-.563 2.115 0 2.115 2.239zm-.96-3.035-1.448.199q-.668.094-1.008.334-.34.235-.34.838a.93.93 0 0 0 .31.721q.318.275.839.275.714 0 1.178-.498.468-.504.468-1.272zm5.554 2.976q-.34.188-.897.188-1.575 0-1.576-1.758v-3.551h-1.03V101h1.03v-1.465l.961-.31V101h1.512v.82h-1.512v3.381q0 .605.205.861.206.258.68.258.363 0 .627-.199zm1.775-7.464a.61.61 0 0 1-.621-.621q0-.27.182-.446a.6.6 0 0 1 .439-.181q.264 0 .446.181a.58.58 0 0 1 .187.446.6.6 0 0 1-.187.439.6.6 0 0 1-.446.182m.469 7.523h-.961v-6h.961zm4.453.141q-1.329 0-2.127-.838-.79-.844-.791-2.233 0-1.512.826-2.361t2.233-.85q1.341 0 2.092.827.756.825.756 2.291 0 1.435-.815 2.302-.809.862-2.174.862m.071-5.473q-.927 0-1.465.633-.54.627-.539 1.734 0 1.067.545 1.682.544.615 1.459.615.931 0 1.429-.603.504-.604.504-1.717 0-1.125-.504-1.735-.498-.609-1.429-.609m9.433 5.332h-.961v-3.422q0-1.91-1.394-1.91a1.52 1.52 0 0 0-1.196.545q-.468.538-.468 1.365V107h-.961v-6h.961v.996h.023q.68-1.137 1.969-1.137.984 0 1.506.639.52.633.521 1.834zm9.404 0h-.96v-.938h-.024q-.627 1.079-1.846 1.079-.896 0-1.406-.475-.504-.474-.504-1.26 0-1.681 1.981-1.957l1.799-.252q0-1.529-1.237-1.529-1.084 0-1.957.738v-.984q.885-.563 2.039-.563 2.115 0 2.115 2.239zm-.96-3.035-1.448.199q-.668.094-1.008.334-.339.235-.339.838a.93.93 0 0 0 .31.721q.316.275.838.275.715 0 1.178-.498.469-.504.469-1.272zM132.73 107h-.96v-3.422q0-1.91-1.395-1.91-.72 0-1.195.545-.47.538-.469 1.365V107h-.961v-6h.961v.996h.023q.68-1.137 1.969-1.137.984 0 1.506.639.522.633.521 1.834zm6.938 0h-.961v-1.02h-.023q-.669 1.161-2.063 1.161-1.13 0-1.81-.803-.674-.809-.674-2.197 0-1.489.75-2.385.75-.897 1.998-.897 1.236 0 1.799.973h.023v-3.715h.961zm-.961-2.713v-.885q0-.726-.48-1.23-.481-.504-1.219-.504-.879 0-1.383.644-.504.645-.504 1.782 0 1.037.481 1.64.486.598 1.3.598.803 0 1.301-.58.504-.58.504-1.465m8.982 2.654q-.34.188-.896.188-1.576 0-1.576-1.758v-3.551h-1.031V101h1.031v-1.465l.961-.31V101h1.511v.82h-1.511v3.381q0 .605.205.861.205.258.679.258.364 0 .627-.199zm5.579.059h-.961v-.938h-.024q-.627 1.079-1.845 1.079-.897 0-1.407-.475-.504-.474-.504-1.26 0-1.681 1.981-1.957l1.799-.252q0-1.529-1.237-1.529-1.084 0-1.957.738v-.984q.885-.563 2.039-.563 2.115 0 2.116 2.239zm-.961-3.035-1.448.199q-.668.094-1.007.334-.34.235-.34.838a.93.93 0 0 0 .31.721q.316.275.838.275.715 0 1.178-.498.469-.504.469-1.272zm2.408 2.818v-1.031a2.84 2.84 0 0 0 1.728.58q1.266 0 1.266-.844a.7.7 0 0 0-.111-.404 1 1 0 0 0-.293-.299 2 2 0 0 0-.434-.228 15 15 0 0 0-.533-.217 8 8 0 0 1-.703-.317 2.3 2.3 0 0 1-.504-.363 1.4 1.4 0 0 1-.305-.463 1.7 1.7 0 0 1-.099-.603q0-.423.193-.744.194-.329.516-.545.322-.223.732-.334.416-.112.855-.112.78 0 1.395.27v.973q-.662-.435-1.523-.434-.27 0-.487.064a1.2 1.2 0 0 0-.375.17.85.85 0 0 0-.24.27.7.7 0 0 0-.082.34.84.84 0 0 0 .082.392q.089.159.252.282.164.123.398.222.235.1.534.217.397.153.714.316.317.159.539.364.223.2.34.463.123.263.123.627 0 .444-.199.773-.194.328-.521.545a2.4 2.4 0 0 1-.756.322q-.428.105-.897.106-.925 0-1.605-.358m10.441.217h-1.347l-2.649-2.883h-.023V107h-.961v-8.883h.961v5.631h.023l2.52-2.748h1.259l-2.783 2.895zm8.573 0h-.961v-.938h-.024q-.627 1.079-1.846 1.079-.896 0-1.406-.475-.504-.474-.504-1.26 0-1.681 1.981-1.957l1.799-.252q0-1.529-1.237-1.529-1.084 0-1.957.738v-.984q.885-.563 2.039-.563 2.115 0 2.116 2.239zm-.961-3.035-1.448.199q-.668.094-1.008.334-.339.235-.339.838a.93.93 0 0 0 .31.721q.316.275.838.275.715 0 1.178-.498.469-.504.469-1.272zm7.623 3.035h-.961v-.949h-.024q-.597 1.09-1.851 1.09-2.145 0-2.145-2.555V101h.955v3.434q0 1.898 1.453 1.898.703 0 1.155-.516.456-.52.457-1.359V101h.961zm4.728-.059q-.34.188-.896.188-1.577 0-1.577-1.758v-3.551h-1.031V101h1.031v-1.465l.961-.31V101h1.512v.82h-1.512v3.381q0 .605.205.861.206.258.68.258.363 0 .627-.199zm3.791.2q-1.33 0-2.127-.838-.79-.844-.791-2.233 0-1.512.826-2.361t2.233-.85q1.341 0 2.092.827.755.825.755 2.291 0 1.435-.814 2.302-.809.862-2.174.862m.07-5.473q-.925 0-1.464.633-.54.627-.539 1.734 0 1.067.544 1.682.546.615 1.459.615.933 0 1.43-.603.504-.604.504-1.717 0-1.125-.504-1.735-.497-.609-1.43-.609M201.953 107h-.961v-3.445q0-.996-.31-1.442-.305-.445-1.032-.445-.615 0-1.048.562-.428.563-.428 1.348V107h-.961v-3.562q0-1.77-1.365-1.77-.633 0-1.043.533-.41.528-.41 1.377V107h-.961v-6h.961v.949h.023q.639-1.09 1.863-1.09.615 0 1.073.346.456.34.626.897.669-1.243 1.993-1.243 1.98 0 1.98 2.444zm6.111 0h-.96v-.938h-.024q-.627 1.079-1.846 1.079-.896 0-1.406-.475-.504-.474-.504-1.26 0-1.681 1.981-1.957l1.799-.252q0-1.529-1.237-1.529-1.083 0-1.957.738v-.984q.885-.563 2.039-.563 2.115 0 2.115 2.239zm-.96-3.035-1.448.199q-.668.094-1.008.334-.339.235-.339.838a.93.93 0 0 0 .31.721q.316.275.838.275.715 0 1.178-.498.469-.504.469-1.272zm5.554 2.976q-.34.188-.896.188-1.576 0-1.576-1.758v-3.551h-1.032V101h1.032v-1.465l.96-.31V101h1.512v.82h-1.512v3.381q0 .605.206.861.204.258.679.258.363 0 .627-.199zm1.776-7.464a.61.61 0 0 1-.622-.621q0-.27.182-.446a.6.6 0 0 1 .44-.181q.263 0 .445.181a.58.58 0 0 1 .187.446.6.6 0 0 1-.187.439.6.6 0 0 1-.445.182m.468 7.523h-.961v-6h.961zm4.453.141q-1.33 0-2.126-.838-.791-.844-.791-2.233 0-1.512.826-2.361t2.232-.85q1.342 0 2.092.827.756.825.756 2.291 0 1.435-.815 2.302-.808.862-2.174.862m.071-5.473q-.926 0-1.465.633-.539.627-.539 1.734 0 1.067.545 1.682.544.615 1.459.615.931 0 1.429-.603.504-.604.504-1.717 0-1.125-.504-1.735-.498-.609-1.429-.609m9.433 5.332h-.961v-3.422q0-1.91-1.394-1.91-.721 0-1.195.545-.47.538-.469 1.365V107h-.961v-6h.961v.996h.023q.68-1.137 1.969-1.137.984 0 1.506.639.522.633.521 1.834zm8.075-8.04a1.3 1.3 0 0 0-.639-.157q-1.008 0-1.008 1.271V101h1.406v.82h-1.406V107h-.955v-5.18h-1.025V101h1.025v-.973q0-.944.545-1.488.545-.55 1.359-.55.44 0 .698.105zm5.619 5.28h-4.237q.024 1.002.539 1.547.516.545 1.418.545 1.014 0 1.864-.668v.902q-.792.575-2.092.575-1.272 0-1.998-.815-.727-.82-.727-2.303 0-1.4.791-2.279.798-.885 1.975-.885t1.822.762.645 2.115zm-.985-.814q-.006-.833-.404-1.295-.393-.463-1.096-.463-.68 0-1.154.486-.475.487-.586 1.272zm6.739 3.574h-.961v-.938h-.024q-.627 1.079-1.845 1.079-.897 0-1.407-.475-.504-.474-.504-1.26 0-1.681 1.981-1.957l1.799-.252q0-1.529-1.237-1.529-1.084 0-1.957.738v-.984q.885-.563 2.039-.563 2.116 0 2.116 2.239zm-.961-3.035-1.448.199q-.668.094-1.007.334-.34.235-.34.838a.93.93 0 0 0 .31.721q.317.275.838.275.715 0 1.178-.498.469-.504.469-1.272zm5.554 2.976q-.34.188-.896.188-1.576 0-1.576-1.758v-3.551h-1.032V101h1.032v-1.465l.961-.31V101h1.511v.82h-1.511v3.381q0 .605.205.861.204.258.679.258.364 0 .627-.199zm6.135.059h-.961v-.949h-.023q-.598 1.09-1.852 1.09-2.144 0-2.144-2.555V101h.955v3.434q0 1.898 1.453 1.898.703 0 1.154-.516.457-.52.457-1.359V101h.961zm5.074-5.027q-.252-.194-.726-.194-.615 0-1.031.58-.411.58-.411 1.582V107h-.961v-6h.961v1.236h.024q.205-.633.627-.984.422-.357.943-.357.375 0 .574.082zm5.866 2.267h-4.237q.024 1.002.539 1.547.516.545 1.418.545 1.014 0 1.864-.668v.902q-.792.575-2.092.575-1.272 0-1.998-.815-.727-.82-.727-2.303 0-1.4.791-2.279.797-.885 1.975-.885t1.822.762.645 2.115zm-.985-.814q-.005-.833-.404-1.295-.393-.463-1.096-.463-.68 0-1.154.486-.474.487-.586 1.272zm2.08 3.357v-1.031q.786.58 1.729.58 1.265 0 1.265-.844a.7.7 0 0 0-.111-.404 1 1 0 0 0-.293-.299 2 2 0 0 0-.433-.228 15 15 0 0 0-.534-.217 8 8 0 0 1-.703-.317 2.3 2.3 0 0 1-.504-.363 1.5 1.5 0 0 1-.304-.463 1.7 1.7 0 0 1-.1-.603q0-.423.193-.744.193-.329.516-.545.322-.223.732-.334a3.3 3.3 0 0 1 .856-.112q.779 0 1.394.27v.973q-.662-.435-1.523-.434-.27 0-.486.064-.217.059-.375.17a.8.8 0 0 0-.241.27.7.7 0 0 0-.082.34q0 .234.082.392.088.159.252.282.165.123.399.222.234.1.533.217.399.153.715.316.317.159.539.364.223.2.34.463.123.263.123.627 0 .444-.199.773-.193.328-.522.545a2.4 2.4 0 0 1-.756.322q-.428.105-.896.106-.926 0-1.606-.358m5.795.346a.64.64 0 0 1-.463-.193.64.64 0 0 1-.187-.463.64.64 0 0 1 .187-.463.62.62 0 0 1 .463-.199q.276 0 .469.199a.63.63 0 0 1 .193.463.63.63 0 0 1-.193.463.64.64 0 0 1-.469.193"/>
      <path fill="#0F6CBD" d="M16 126a4 4 0 0 1 4-4h86a4 4 0 0 1 4 4v24a4 4 0 0 1-4 4H20a4 4 0 0 1-4-4z"/>
      <path fill="#fff" fill-rule="evenodd" d="M38 146a8 8 0 1 0 0-16 8 8 0 0 0 0 16m0-1a7 7 0 1 1 0-14 7 7 0 0 1 0 14" clip-rule="evenodd"/>
      <path fill="#fff" d="M55.21 143v-9.803h3.11q1.422 0 2.25.622.833.622.833 1.621 0 .834-.471 1.449-.472.615-1.306.875v.027q1.012.116 1.613.752.609.629.609 1.641 0 1.257-.992 2.037-.99.779-2.501.779zm1.62-8.497v2.789h1.053q.847 0 1.326-.396.485-.404.485-1.135 0-1.258-1.681-1.258zm0 4.095v3.103h1.388q.909 0 1.401-.417.5-.423.5-1.162 0-1.524-2.113-1.524zM69.6 143h-1.586v-1.107h-.028q-.69 1.27-2.146 1.271-2.481 0-2.482-2.98V136h1.586v4.02q0 1.886 1.456 1.886.705 0 1.156-.519.458-.52.458-1.361V136H69.6zm5.762-.075q-.465.232-1.223.232-2.037 0-2.037-1.955v-3.958h-1.17V136h1.17v-1.62l1.585-.451V136h1.675v1.244h-1.674v3.5q0 .622.225.889t.752.267q.403 0 .697-.233zm5.059 0q-.465.232-1.224.232-2.037 0-2.037-1.955v-3.958h-1.169V136h1.17v-1.62l1.585-.451V136h1.675v1.244h-1.675v3.5q0 .622.226.889.225.267.752.267.403 0 .697-.233zm4.389.239q-1.62 0-2.591-.977-.964-.985-.964-2.605 0-1.764 1.005-2.755 1.011-.991 2.72-.991 1.64 0 2.557.964.915.963.916 2.673 0 1.675-.991 2.686-.984 1.005-2.652 1.005m.075-6.063q-.93 0-1.47.649-.54.65-.54 1.791 0 1.101.547 1.736.547.63 1.463.629.936 0 1.435-.622.506-.622.506-1.77 0-1.155-.506-1.784-.498-.63-1.435-.629M96.308 143h-1.586v-3.944q0-1.962-1.388-1.962a1.51 1.51 0 0 0-1.196.547q-.472.54-.472 1.367V143h-1.593v-7h1.593v1.162h.027q.786-1.326 2.27-1.326 1.142 0 1.743.745.602.738.602 2.14z"/>
      <mask id="c" fill="#fff">
        <path d="M122 126a4 4 0 0 1 4-4h86a4 4 0 0 1 4 4v24a4 4 0 0 1-4 4h-86a4 4 0 0 1-4-4z"/>
      </mask>
      <path fill="#fff" d="M122 126a4 4 0 0 1 4-4h86a4 4 0 0 1 4 4v24a4 4 0 0 1-4 4h-86a4 4 0 0 1-4-4z"/>
      <path fill="#D1D1D1" d="M126 122v1h86v-2h-86zm90 4h-1v24h2v-24zm-4 28v-1h-86v2h86zm-90-4h1v-24h-2v24zm4 4v-1a3 3 0 0 1-3-3h-2a5 5 0 0 0 5 5zm90-4h-1a3 3 0 0 1-3 3v2a5 5 0 0 0 5-5zm-4-28v1a3 3 0 0 1 3 3h2a5 5 0 0 0-5-5zm-86 0v-1a5 5 0 0 0-5 5h2a3 3 0 0 1 3-3z" mask="url(#c)"/>
      <path fill="#242424" fill-rule="evenodd" d="M144 146a8 8 0 1 0 0-16 8 8 0 0 0 0 16m0-1a7 7 0 1 1 0-14 7 7 0 0 1 0 14" clip-rule="evenodd"/>
      <path fill="#242424" d="M161.21 143v-9.803h3.11q1.422 0 2.249.622.834.622.834 1.621 0 .834-.471 1.449-.472.615-1.306.875v.027q1.011.116 1.613.752.609.629.609 1.641 0 1.257-.992 2.037-.99.779-2.502.779zm1.62-8.497v2.789h1.053q.847 0 1.326-.396.486-.404.485-1.135 0-1.258-1.681-1.258zm0 4.095v3.103h1.388q.909 0 1.401-.417.5-.423.499-1.162 0-1.524-2.112-1.524zM175.6 143h-1.586v-1.107h-.028q-.69 1.27-2.146 1.271-2.482 0-2.482-2.98V136h1.586v4.02q0 1.886 1.456 1.886.705 0 1.156-.519.458-.52.458-1.361V136h1.586zm5.762-.075q-.465.232-1.223.232-2.037 0-2.037-1.955v-3.958h-1.169V136h1.169v-1.62l1.586-.451V136h1.674v1.244h-1.674v3.5q0 .622.225.889t.752.267q.403 0 .697-.233zm5.059 0q-.465.232-1.224.232-2.037 0-2.037-1.955v-3.958h-1.169V136h1.169v-1.62l1.586-.451V136h1.675v1.244h-1.675v3.5q0 .622.226.889.225.267.752.267.403 0 .697-.233zm4.389.239q-1.621 0-2.591-.977-.964-.985-.964-2.605 0-1.764 1.005-2.755 1.011-.991 2.72-.991 1.64 0 2.557.964.916.963.916 2.673 0 1.675-.991 2.686-.984 1.005-2.652 1.005m.075-6.063q-.93 0-1.47.649-.54.65-.54 1.791 0 1.101.547 1.736.546.63 1.463.629.936 0 1.435-.622.506-.622.506-1.77 0-1.155-.506-1.784-.499-.63-1.435-.629M202.308 143h-1.586v-3.944q0-1.962-1.388-1.962-.725 0-1.196.547-.472.54-.472 1.367V143h-1.593v-7h1.593v1.162h.027q.786-1.326 2.27-1.326 1.142 0 1.743.745.602.738.602 2.14z"/>
    </g>
  </g>
  <defs>
    <clipPath id="b">
      <path fill="#fff" d="M4 6a4 4 0 0 1 4-4h312a4 4 0 0 1 4 4v156a4 4 0 0 1-4 4H8a4 4 0 0 1-4-4z"/>
    </clipPath>
    <filter id="a" width="328" height="172" x="0" y="0" color-interpolation-filters="sRGB" filterUnits="userSpaceOnUse">
      <feFlood flood-opacity="0" result="BackgroundImageFix"/>
      <feColorMatrix in="SourceAlpha" result="hardAlpha" values="0 0 0 0 0 0 0 0 0 0 0 0 0 0 0 0 0 0 127 0"/>
      <feOffset/>
      <feGaussianBlur stdDeviation="1"/>
      <feComposite in2="hardAlpha" operator="out"/>
      <feColorMatrix values="0 0 0 0 0 0 0 0 0 0 0 0 0 0 0 0 0 0 0.12 0"/>
      <feBlend in2="BackgroundImageFix" result="effect1_dropShadow_9230_4928"/>
      <feColorMatrix in="SourceAlpha" result="hardAlpha" values="0 0 0 0 0 0 0 0 0 0 0 0 0 0 0 0 0 0 127 0"/>
      <feOffset dy="2"/>
      <feGaussianBlur stdDeviation="2"/>
      <feComposite in2="hardAlpha" operator="out"/>
      <feColorMatrix values="0 0 0 0 0 0 0 0 0 0 0 0 0 0 0 0 0 0 0.14 0"/>
      <feBlend in2="effect1_dropShadow_9230_4928" result="effect2_dropShadow_9230_4928"/>
      <feBlend in="SourceGraphic" in2="effect2_dropShadow_9230_4928" result="shape"/>
    </filter>
  </defs>
</svg>
